Coordinates
version=1
nRows=23
nColumns=23
inDegrees=yes

Units are S.I. units (second, meters, Newtons, ...)
Angles are in degrees.

endheader
time	thorax_tilt	thorax_list	thorax_rotation	thorax_tx	thorax_ty	thorax_tz	sternoclavicular_r2	sternoclavicular_r3	unrotscap_r3	unrotscap_r2	acromioclavicular_r2	acromioclavicular_r3	acromioclavicular_r1	unrothum_r1	unrothum_r3	unrothum_r2	elv_angle	shoulder_elv	shoulder1_r2	shoulder_rot	elbow_flexion	pro_sup
      5.42800000	     -2.24155784	      3.79206600	      4.18304493	     -0.40995172	      1.57973222	      0.01755770	    -19.30683528	      8.17482343	     -8.17744011	     19.30517704	     -3.90864060	     31.58928442	     14.19994635	    -14.19951376	    -31.59010400	      3.90883290	     74.40563429	     79.77328580	    -74.40580686	     30.86856336	     38.27337162	     -2.62876135
      5.43200000	     -2.24150685	      3.79210111	      4.18270155	     -0.40996031	      1.57973222	      0.01755618	    -19.30703522	      8.17485229	     -8.17747538	     19.30520896	     -3.90870639	     31.58940559	     14.19997834	    -14.19959007	    -31.59024417	      3.90880531	     74.40590740	     79.77328900	    -74.40552529	     30.86858535	     38.27331363	     -2.62871644
      5.43600000	     -2.24147279	      3.79212527	      4.18244799	     -0.40996793	      1.57973235	      0.01755510	    -19.30700057	      8.17484248	     -8.17746428	     19.30518539	     -3.90869890	     31.58936443	     14.19996081	    -14.19957027	    -31.59020118	      3.90880197	     74.40553619	     79.77347526	    -74.40588320	     30.86859582	     38.27327984	     -2.62868787
      5.44000000	     -2.24047892	      3.79286685	      4.17477463	     -0.41019452	      1.57973686	      0.01752204	    -19.30758140	      8.17510289	     -8.17772691	     19.30579882	     -3.90882843	     31.59037896	     14.20041615	    -14.20002710	    -31.59121194	      3.90892114	     74.40545501	     79.77600003	    -74.40545479	     30.86885001	     38.27230308	     -2.62786179
      5.44400000	     -2.24024045	      3.79306093	      4.17334991	     -0.41019836	      1.57973543	      0.01751653	    -19.30766748	      8.17522704	     -8.17784698	     19.30617763	     -3.90879126	     31.59086332	     14.20067801	    -14.20020194	    -31.59166307	      3.90906446	     74.40546959	     79.77631303	    -74.40536212	     30.86894434	     38.27195997	     -2.62764829
      5.44800000	     -2.24021501	      3.79308251	      4.17316535	     -0.41020074	      1.57973544	      0.01751601	    -19.30769476	      8.17516765	     -8.17778855	     19.30596423	     -3.90884123	     31.59062462	     14.20053349	    -14.20013099	    -31.59145277	      3.90896696	     74.40537493	     79.77669158	    -74.40544036	     30.86895185	     38.27192508	     -2.62762528
      5.45200000	     -2.23914536	      3.79409774	      4.16392001	     -0.41037493	      1.57973978	      0.01748680	    -19.30825290	      8.17549965	     -8.17812496	     19.30684337	     -3.90890892	     31.59193628	     14.20116945	    -14.20067464	    -31.59272493	      3.90920766	     74.40490781	     79.77972771	    -74.40494979	     30.86921708	     38.27045283	     -2.62660075
      5.45600000	     -2.23911104	      3.79414178	      4.16363793	     -0.41037267	      1.57973932	      0.01748594	    -19.30860581	      8.17550721	     -8.17811978	     19.30669914	     -3.90906174	     31.59190967	     14.20107761	    -14.20074539	    -31.59276936	      3.90907443	     74.40496705	     79.77984700	    -74.40486541	     30.86923748	     38.27037446	     -2.62655686
      5.46000000	     -2.23907001	      3.79419974	      4.16319804	     -0.41037554	      1.57973914	      0.01748454	    -19.30849536	      8.17552884	     -8.17814274	     19.30682402	     -3.90899661	     31.59200824	     14.20115926	    -14.20075147	    -31.59283628	      3.90915218	     74.40474119	     79.77998948	    -74.40504183	     30.86925828	     38.27028141	     -2.62650097
      5.46400000	     -2.23905205	      3.79422902	      4.16294374	     -0.41037955	      1.57973923	      0.01748389	    -19.30861373	      8.17553435	     -8.17814336	     19.30678249	     -3.90904876	     31.59200985	     14.20113302	    -14.20078107	    -31.59286280	      3.90910896	     74.40499479	     79.78007470	    -74.40475267	     30.86926509	     38.27023825	     -2.62647402
      5.46800000	     -2.23902819	      3.79427596	      4.16249361	     -0.41038960	      1.57973960	      0.01748292	    -19.30870857	      8.17554984	     -8.17815165	     19.30678181	     -3.90908399	     31.59204755	     14.20113199	    -14.20081922	    -31.59292033	      3.90908883	     74.40458189	     79.78018723	    -74.40509326	     30.86927044	     38.27017487	     -2.62643317
      5.47200000	     -2.23850793	      3.79555832	      4.15071063	     -0.41061770	      1.57974754	      0.01745266	    -19.30943073	      8.17590142	     -8.17849719	     19.30764222	     -3.90921056	     31.59340010	     14.20175659	    -14.20141099	    -31.59425806	      3.90929061	     74.40382089	     79.78314690	    -74.40385243	     30.86944523	     38.26837098	     -2.62534240
      5.47600000	     -2.23849946	      3.79558941	      4.15049146	     -0.41061708	      1.57974739	      0.01745189	    -19.30934511	      8.17586559	     -8.17846327	     19.30755686	     -3.90919721	     31.59326647	     14.20169598	    -14.20135109	    -31.59412322	      3.90927046	     74.40382699	     79.78342820	    -74.40380990	     30.86945726	     38.26831620	     -2.62531442
      5.48000000	     -2.23849011	      3.79567511	      4.14981184	     -0.41062310	      1.57974725	      0.01745006	    -19.30960937	      8.17593926	     -8.17852029	     19.30766807	     -3.90927470	     31.59350474	     14.20177133	    -14.20149987	    -31.59440371	      3.90926251	     74.40367784	     79.78334108	    -74.40382952	     30.86947974	     38.26817893	     -2.62524317
      5.48400000	     -2.23848961	      3.79571461	      4.14946646	     -0.41062866	      1.57974734	      0.01744926	    -19.30945475	      8.17588471	     -8.17846948	     19.30755538	     -3.90923642	     31.59330498	     14.20169023	    -14.20139776	    -31.59419063	      3.90924831	     74.40377938	     79.78373444	    -74.40365743	     30.86948700	     38.26811968	     -2.62521166
      5.48800000	     -2.23863115	      3.79693457	      4.13859604	     -0.41082904	      1.57974986	      0.01742626	    -19.30985885	      8.17614613	     -8.17874798	     19.30827385	     -3.90927516	     31.59436975	     14.20222386	    -14.20180614	    -31.59518227	      3.90945306	     74.40257214	     79.78579687	    -74.40248192	     30.86965544	     38.26634745	     -2.62429189
      5.49200000	     -2.23863895	      3.79698520	      4.13822077	     -0.41082817	      1.57974973	      0.01742500	    -19.31007271	      8.17614676	     -8.17871025	     19.30813088	     -3.90937486	     31.59426692	     14.20210288	    -14.20185926	    -31.59518009	      3.90935263	     74.40237349	     79.78597266	    -74.40259359	     30.86967460	     38.26625298	     -2.62424918
      5.49600000	     -2.23865323	      3.79703342	      4.13783694	     -0.41083128	      1.57974962	      0.01742389	    -19.31009321	      8.17617191	     -8.17874091	     19.30821772	     -3.90936626	     31.59438051	     14.20216749	    -14.20189336	    -31.59527762	      3.90938520	     74.40257033	     79.78595408	    -74.40230407	     30.86968824	     38.26617262	     -2.62421202
      5.50000000	     -2.23867235	      3.79708053	      4.13744369	     -0.41083723	      1.57974949	      0.01742315	    -19.31013344	      8.17616623	     -8.17872594	     19.30816690	     -3.90939117	     31.59433328	     14.20212613	    -14.20189995	    -31.59525871	      3.90935503	     74.40218435	     79.78609081	    -74.40258832	     30.86969574	     38.26610176	     -2.62417957
      5.50400000	     -2.23943228	      3.79866907	      4.12413260	     -0.41105923	      1.57974428	      0.01739767	    -19.31056133	      8.17638050	     -8.17893022	     19.30867461	     -3.90947199	     31.59514196	     14.20249566	    -14.20225537	    -31.59605375	      3.90946976	     74.40057552	     79.78809579	    -74.40062058	     30.86990892	     38.26379176	     -2.62313650
      5.50800000	     -2.24474193	      3.80890288	      4.03871777	     -0.41079239	      1.57974711	      0.01713725	    -19.31500274	      8.17832169	     -8.18084215	     19.31339089	     -3.91024074	     31.60263824	     14.20591805	    -14.20553401	    -31.60346644	      3.91054697	     74.39195336	     79.80687554	    -74.39155800	     30.88021681	     38.24149198	     -2.61144396
      5.51200000	     -2.24475513	      3.80889846	      4.03870383	     -0.41079367	      1.57974683	      0.01713734	    -19.31492292	      8.17832510	     -8.18085750	     19.31347275	     -3.91017880	     31.60268684	     14.20597967	    -14.20549994	    -31.60346059	      3.91061018	     74.39180920	     79.80689251	    -74.39176682	     30.88027596	     38.24148540	     -2.61141711
      5.51600000	     -2.24487006	      3.80890384	      4.03837160	     -0.41081454	      1.57974413	      0.01713895	    -19.31499504	      8.17834097	     -8.18086800	     19.31353297	     -3.91016511	     31.60274150	     14.20600718	    -14.20552894	    -31.60353210	      3.91064141	     74.39227786	     79.80703203	    -74.39160092	     30.88061807	     38.24144053	     -2.61125247
